# xmcd
#
# Track frame offsets:
#	150
#	15132
#	25129
#	36720
#	45427
#	54194
#	65863
#	76294
#	86362
#	96582
#	109477
#	122452
#	135063
#	148213
#	157033
#	165084
#	177643
#	188864
#	201386
#	214793
#	225979
#	237257
#	247978
#	258701
#	269387
#
# Disc length: 3731 seconds
#
# Revision: 1
# Processed by: cddbd v1.5.2PL0 Copyright (c) Steve Scherf et al.
# Submitted via: audiograbber 1.83.01
#
DISCID=590e9119
DTITLE=Various Artist - Guess Who? - The Zirkon Records Story  [CD1)
DYEAR=2015
DGENRE=Oldies
TTITLE0=Gladys Knight and The Pips - Guess Who 
TTITLE1=Ral Donner - You Don't Know What You've Got 
TTITLE2=Flamingos - Ko Ko Mo 
TTITLE3=Gary Cane - The Fight 
TTITLE4=Paul Chaplin and His Emeralds - Shortnin' Bread 
TTITLE5=Maxine Brown - All In My Mind 
TTITLE6=Don Covay and Goodtimers - Pony Time 
TTITLE7=Lee Dorsey - Do-Re-Mi 
TTITLE8=Ted Self - Little Angel (Come Rock Me To Sleep) 
TTITLE9=Crests  - In The Still Of The Night 
TTITLE10=Ike and Tina Turner - A Fool In Love 
TTITLE11=Sevilles - Charlena 
TTITLE12=Johnny Maestro - What A Surprise 
TTITLE13=Royaltones   - Flamingo Express 
TTITLE14=Chiffons   - Tonight's The Night 
TTITLE15=Wilbert Harrison - The Horse 
TTITLE16=Dubs   - Chapel Of Dreams 
TTITLE17=Little Anthony and The Imperials - Please Say You Want Me 
TTITLE18=Bobby Marchan - Booty Green 
TTITLE19=Chimes   - Once In A While 
TTITLE20=Adam Wade - The Writing On The Wall 
TTITLE21=Bobbettes   - Have Mercy Baby 
TTITLE22=Little Junior Lewis - Your Heart Must Be Made Of Stone 
TTITLE23=Pete Bennett and The Embers - Fever 
TTITLE24=Texans   - Green Grass Of Texas 
EXTD=
EXTT0=
EXTT1=
EXTT2=
EXTT3=
EXTT4=
EXTT5=
EXTT6=
EXTT7=
EXTT8=
EXTT9=
EXTT10=
EXTT11=
EXTT12=
EXTT13=
EXTT14=
EXTT15=
EXTT16=
EXTT17=
EXTT18=
EXTT19=
EXTT20=
EXTT21=
EXTT22=
EXTT23=
EXTT24=
PLAYORDER=
